<svg width="36" height="29" viewBox="0 0 36 29" fill="none" xmlns="http://www.w3.org/2000/svg">
<path d="M28.2857 10.5713C28.2857 4.88609 21.9576 0.285645 14.1429 0.285645C6.32813 0.285645 0 4.88609 0 10.5713C0 13.8258 2.08929 16.7387 5.34375 18.6271C4.66071 20.2945 3.77679 21.078 2.9933 21.962C2.77232 22.2231 2.51116 22.4642 2.59152 22.8459C2.65179 23.1874 2.93304 23.4285 3.23438 23.4285C3.25446 23.4285 3.27455 23.4285 3.29464 23.4285C3.89732 23.3481 4.47991 23.2477 5.02232 23.107C7.05134 22.5847 8.93973 21.7209 10.6071 20.5356C11.7321 20.7365 12.9174 20.857 14.1429 20.857C21.9576 20.857 28.2857 16.2566 28.2857 10.5713ZM36 15.7142C36 12.3593 33.7902 9.38609 30.3951 7.51779C30.6964 8.50216 30.8571 9.52672 30.8571 10.5713C30.8571 14.1673 29.0089 17.482 25.654 19.9329C22.5402 22.1829 18.4621 23.4285 14.1429 23.4285C13.5603 23.4285 12.9576 23.3883 12.375 23.3481C14.8862 24.9954 18.221 25.9999 21.8571 25.9999C23.0826 25.9999 24.2679 25.8794 25.3929 25.6785C27.0603 26.8637 28.9487 27.7276 30.9777 28.2499C31.5201 28.3905 32.1027 28.491 32.7054 28.5713C33.0268 28.6115 33.3281 28.3503 33.4085 27.9887C33.4888 27.607 33.2277 27.366 33.0067 27.1048C32.2232 26.2209 31.3393 25.4374 30.6563 23.77C33.9107 21.8816 36 18.9887 36 15.7142Z" fill="#1BD760"/>
</svg>
